<mxfile host="app.diagrams.net" modified="2021-07-06T12:28:06.141Z" agent="5.0 (Windows NT 10.0; Win64; x64) AppleWebKit/537.36 (KHTML, like Gecko) Chrome/91.0.4472.124 Safari/537.36 Edg/91.0.864.64" etag="UtV0uyIurzXG-yJd508O" version="14.7.10" type="github">
  <diagram name="Page-1" id="97916047-d0de-89f5-080d-49f4d83e522f">
    <mxGraphModel dx="1117" dy="679" grid="0" gridSize="10" guides="1" tooltips="1" connect="1" arrows="1" fold="1" page="1" pageScale="1.5" pageWidth="1169" pageHeight="827" background="#ffffff" math="0" shadow="0">
      <root>
        <mxCell id="0" />
        <mxCell id="1" parent="0" />
        <mxCell id="5M6JLG9jEVxetmK14lH3-2" value="parts" style="swimlane;fontStyle=0;childLayout=stackLayout;horizontal=1;startSize=26;horizontalStack=0;resizeParent=1;resizeParentMax=0;resizeLast=0;collapsible=1;marginBottom=0;fontSize=20;" vertex="1" parent="1">
          <mxGeometry x="215" y="508" width="161" height="93" as="geometry" />
        </mxCell>
        <mxCell id="5M6JLG9jEVxetmK14lH3-3" value="parts_id" style="text;strokeColor=none;fillColor=none;align=left;verticalAlign=top;spacingLeft=4;spacingRight=4;overflow=hidden;rotatable=0;points=[[0,0.5],[1,0.5]];portConstraint=eastwest;fontSize=20;" vertex="1" parent="5M6JLG9jEVxetmK14lH3-2">
          <mxGeometry y="26" width="161" height="26" as="geometry" />
        </mxCell>
        <mxCell id="5M6JLG9jEVxetmK14lH3-4" value="parts_name" style="text;strokeColor=none;fillColor=none;align=left;verticalAlign=top;spacingLeft=4;spacingRight=4;overflow=hidden;rotatable=0;points=[[0,0.5],[1,0.5]];portConstraint=eastwest;fontSize=20;" vertex="1" parent="5M6JLG9jEVxetmK14lH3-2">
          <mxGeometry y="52" width="161" height="41" as="geometry" />
        </mxCell>
        <mxCell id="5M6JLG9jEVxetmK14lH3-6" value="parts" style="swimlane;fontStyle=0;childLayout=stackLayout;horizontal=1;startSize=26;horizontalStack=0;resizeParent=1;resizeParentMax=0;resizeLast=0;collapsible=1;marginBottom=0;fontSize=20;" vertex="1" parent="1">
          <mxGeometry x="650" y="518" width="161" height="93" as="geometry">
            <mxRectangle x="650" y="518" width="72" height="28" as="alternateBounds" />
          </mxGeometry>
        </mxCell>
        <mxCell id="5M6JLG9jEVxetmK14lH3-7" value="parts_id" style="text;strokeColor=none;fillColor=none;align=left;verticalAlign=top;spacingLeft=4;spacingRight=4;overflow=hidden;rotatable=0;points=[[0,0.5],[1,0.5]];portConstraint=eastwest;fontSize=20;" vertex="1" parent="5M6JLG9jEVxetmK14lH3-6">
          <mxGeometry y="26" width="161" height="26" as="geometry" />
        </mxCell>
        <mxCell id="5M6JLG9jEVxetmK14lH3-8" value="parts_name" style="text;strokeColor=none;fillColor=none;align=left;verticalAlign=top;spacingLeft=4;spacingRight=4;overflow=hidden;rotatable=0;points=[[0,0.5],[1,0.5]];portConstraint=eastwest;fontSize=20;" vertex="1" parent="5M6JLG9jEVxetmK14lH3-6">
          <mxGeometry y="52" width="161" height="41" as="geometry" />
        </mxCell>
      </root>
    </mxGraphModel>
  </diagram>
</mxfile>
